<?xml version="1.0" encoding="UTF-8"?>
<svg id="Current" xmlns="http://www.w3.org/2000/svg" viewBox="0 0 57.34 49.83">
  <defs>
    <style>
      .cls-1 {
        fill: #ff4800;
      }
    </style>
  </defs>
  <path class="cls-1" d="M24.33,23.78c.24-.22.61-.21.84.04l2.24,2.3c1.84,1.92,4.89,2.08,6.93.39.03-.03.07-.06.1-.09l15.21-14.21c.48.12.98.19,1.49.19,3.86,0,6.89-3.52,6.06-7.53-.49-2.34-2.38-4.24-4.72-4.72-4.01-.84-7.53,2.2-7.53,6.06,0,1.23.36,2.37.98,3.33l-14.49,13.54c-.24.17-.57.14-.79-.08l-2.24-2.3c-1.91-1.98-5.1-2.08-7.2-.15L1.81,40.08C.65,41.15,0,42.67,0,44.25c.02,3.08,2.54,5.59,5.62,5.59h42.51c3.1,0,5.62-2.52,5.62-5.62v-20.15c0-1.24-1.01-2.25-2.25-2.25s-2.25,1.01-2.25,2.25v20.15c0,.62-.5,1.12-1.12,1.12H5.62c-.61,0-1.12-.5-1.12-1.11,0-.31.13-.62.43-.9l19.4-19.54Z"/>
</svg>